<?xml version="1.0" encoding="UTF-8"?>
<svg width="40px" height="40px" viewBox="0 0 40 40" version="1.1" xmlns="http://www.w3.org/2000/svg" xmlns:xlink="http://www.w3.org/1999/xlink">
    <title>Group 29</title>
    <defs>
        <linearGradient x1="7.00423341%" y1="62.4725824%" x2="84.3728441%" y2="39.8420964%" id="linearGradient-1">
            <stop stop-color="#3A83F2" offset="0%"></stop>
            <stop stop-color="#3C8AFC" offset="52.2974903%"></stop>
            <stop stop-color="#335DB8" offset="100%"></stop>
        </linearGradient>
        <linearGradient x1="0%" y1="54.2422425%" x2="95.718842%" y2="39.7889257%" id="linearGradient-2">
            <stop stop-color="#54FFED" offset="0%"></stop>
            <stop stop-color="#00C0FF" offset="100%"></stop>
        </linearGradient>
    </defs>
    <g id="Page-1" stroke="none" stroke-width="1" fill="none" fill-rule="evenodd">
        <g id="SA-DM-Framework-Layout-Data-Preparation0823" transform="translate(-575.000000, -3527.000000)">
            <g id="Group-4-copy-2" transform="translate(563.000000, 3515.000000)">
                <g id="Group-29" transform="translate(12.000000, 12.000000)">
                    <rect id="Rectangle" transform="translate(20.000000, 20.000000) scale(1, -1) translate(-20.000000, -20.000000) " x="0" y="0" width="40" height="40" rx="4"></rect>
                    <g id="logo-backup-22" transform="translate(0.000000, 10.000000)" fill-rule="nonzero">
                        <path d="M38.7647986,5.28992396 C39.6250297,6.46735862 40.8411204,8.73035792 39.1558127,10.8148096 C36.2550891,13.3979944 33.4470064,11.9016724 29.6932707,11.0865253 C28.8248453,10.9124572 27.0259023,10.2571749 25.5485208,9.90909068 C24.9748134,9.77004331 22.9443478,9.22187257 22.4204077,9.09394361 C21.1691625,10.8148096 19.2300267,13.64235 17.7282381,15.2528326 C15.6167618,17.51713 13.0360685,19.0568522 11.0809978,19.6002836 C6.33650088,21.0557629 1.85237828,18.3895653 0.601818971,13.984826 C0.382632153,13.1506737 -0.414817781,9.99966258 0.463996875,7.34079281 C1.58856494,3.93839162 3.87860052,2.14321386 7.19564407,2.14321386 C11.2132702,1.83340119 20.9291646,5.62796713 21.6383795,5.83335534 C22.733219,4.384205 23.9758554,3.00316241 24.3754784,2.57276707 C24.7751014,2.14237173 25.4415525,1.54714372 26.0959406,1.12361673 C28.7548367,-0.597249306 31.7560105,-0.0517738441 34.4636431,1.39533242 C35.7857457,2.06475008 37.9045675,4.11248931 38.7647986,5.28992396 Z M8.34389886,5.65221155 C7.37654986,5.66899424 5.64258897,6.15092175 4.90297446,7.01078999 C3.68999891,8.42579126 3.15197033,10.5080718 3.65172923,12.26396 C4.39259863,14.7234978 6.43322217,16.0679796 9.12592713,16.0679796 C9.9079554,16.0679796 11.8630261,15.7056921 13.1142713,14.9811169 C15.035523,13.8685522 18.3823596,10.2212888 19.5269031,8.45994034 C13.6475611,6.56077896 9.91989302,5.62486937 8.34389886,5.65221155 Z M30.1624876,2.48219517 C29.1170976,2.35801715 27.8946056,2.84448276 27.1125774,3.47848603 C25.9555192,4.41653223 25.2357095,5.38049586 24.2190728,6.64850241 C24.8446954,6.8296462 26.856266,7.38708611 27.5035915,7.55422137 C29.2126611,7.96070974 34.1688747,9.41394377 36.2998091,9.38309114 C36.3566614,9.38226801 36.388736,9.34018156 36.4375832,9.32010298 C38.5301901,8.45994034 37.2007421,6.8296462 35.871294,5.65221155 C34.657661,4.57734931 33.2123979,2.84448276 30.1624876,2.48219517 Z" id="Compound-Path-backup" fill="url(#linearGradient-1)"></path>
                        <path d="M25.5485208,1.48590431 C23.5152473,3.11619845 20.4394744,7.3987009 19.2922947,8.82222792 C16.0077759,12.8979633 13.4325714,14.9426212 12.1758374,15.4339764 C11.7931438,15.5833261 11.3943053,15.6893011 10.9954296,15.7576701 C9.2405412,16.1311849 6.82263601,16.4344875 5.03214712,15.4522159 C2.95894945,14.1425206 0.728122089,10.5381747 0.445413317,7.37307758 C0.132602008,8.27879654 -0.414817781,11.1770972 0.523616144,14.2565417 C2.08767269,18.7851365 6.54523383,21.0494339 11.4720119,19.5097117 C14.0906881,18.6815715 17.0244127,16.3396953 18.9012805,13.984826 C20.7781484,11.6299567 24.6882897,5.38049586 26.9561717,3.65962983 C29.2240537,1.93876379 30.1624876,2.30105138 30.9445159,2.30105138 C31.7265442,2.30105138 32.4303696,2.48219517 34.3854403,3.02562655 C36.340511,3.56905793 38.292439,4.59877865 38.9212043,5.65221155 C38.7647986,5.10878017 37.9755207,4.33890975 37.5135534,3.84077362 C35.2456714,1.39533242 32.1556162,-0.271903992 29.2240537,0.0367539687 C27.5035915,0.217897762 26.6130463,0.632359676 25.5485208,1.48590431 Z" id="Path-backup-11" fill="url(#linearGradient-2)"></path>
                    </g>
                </g>
            </g>
        </g>
    </g>
</svg>